<svg width="1354" height="1150" xmlns="http://www.w3.org/2000/svg" xmlns:xlink="http://www.w3.org/1999/xlink" xml:space="preserve" overflow="hidden"><g transform="translate(-1229 -742)"><path d="M1373.5 1809.5 1893.5 908.5 2413.5 1809.5Z" stroke="#000000" stroke-width="6.875" stroke-miterlimit="8" fill="none" fill-rule="evenodd"/><path d="M3.4375-2.06607e-06 3.43785 577.53-3.43715 577.53-3.4375 2.06607e-06ZM13.7503 572.947 0.000360892 600.447-13.7497 572.947Z" transform="matrix(1 0 0 -1 1893.5 1508.95)"/><path d="M1.71818-2.97729 501.554 285.476 498.118 291.43-1.71818 2.97729ZM502.739 274.253 519.685 299.908 488.994 298.071Z" transform="matrix(-1 0 0 1 1893.19 1509.5)"/><path d="M1895.22 1506.52 2395.05 1794.98 2391.62 1800.93 1891.78 1512.48ZM2396.24 1783.75 2413.19 1809.41 2382.49 1807.57Z"/><path d="M1979.99 1304.38 1973.89 1277.56 1980.59 1276.04 1986.69 1302.85ZM1969.32 1257.45 1963.22 1230.63 1969.92 1229.11 1976.02 1255.92ZM1958.65 1210.52 1952.55 1183.71 1959.25 1182.18 1965.35 1209ZM1947.98 1163.59 1941.88 1136.78 1948.58 1135.25 1954.68 1162.07ZM1937.31 1116.67 1931.21 1089.85 1937.91 1088.33 1944.01 1115.14ZM1926.64 1069.74 1920.54 1042.92 1927.24 1041.4 1933.34 1068.22ZM1915.97 1022.81 1909.87 995.997 1916.57 994.472 1922.67 1021.29ZM1905.3 975.885 1899.2 949.069 1905.9 947.545 1912 974.361ZM1886.19 938.364 1893.5 908.5 1913 932.267Z"/><path d="M2.19372-2.64651 23.3658 14.9032 18.9784 20.1963-2.19372 2.64651ZM39.2448 28.0655 60.4169 45.6153 56.0295 50.9083 34.8574 33.3586ZM76.296 58.7776 97.468 76.3273 93.0806 81.6204 71.9085 64.0706ZM113.347 89.4896 134.519 107.039 130.132 112.332 108.96 94.7827ZM150.398 120.202 171.57 137.751 167.183 143.044 146.011 125.495ZM187.449 150.914 208.621 168.464 204.234 173.757 183.062 156.207ZM224.5 181.626 245.673 199.176 241.285 204.469 220.113 186.919ZM261.552 212.338 282.724 229.888 278.336 235.181 257.164 217.631ZM298.603 243.05 319.775 260.6 315.387 265.893 294.215 248.343ZM335.654 273.762 356.826 291.312 352.438 296.605 331.266 279.055ZM372.705 304.474 393.877 322.024 389.49 327.317 368.317 309.767ZM409.756 335.186 430.928 352.736 426.541 358.029 405.369 340.479ZM446.807 365.898 467.979 383.448 463.592 388.741 442.42 371.191ZM483.858 396.61 505.03 414.16 500.643 419.453 479.471 401.903ZM520.909 427.322 542.081 444.872 537.694 450.165 516.522 432.615ZM557.961 458.034 579.133 475.584 574.745 480.877 553.573 463.327ZM597.127 477.105 609.524 505.241 579.578 498.277Z" transform="matrix(-1 0 0 1 1983.02 1304.5)"/><path d="M1986.12 1302.27 2003.94 1323.22 1998.7 1327.67 1980.88 1306.73ZM2017.3 1338.93 2035.12 1359.87 2029.89 1364.33 2012.07 1343.38ZM2048.49 1375.58 2066.31 1396.53 2061.07 1400.98 2043.25 1380.04ZM2079.67 1412.24 2097.49 1433.18 2092.26 1437.64 2074.44 1416.69ZM2110.86 1448.89 2128.68 1469.84 2123.44 1474.29 2105.62 1453.34ZM2142.04 1485.54 2159.86 1506.49 2154.62 1510.94 2136.8 1490ZM2173.23 1522.2 2191.04 1543.14 2185.81 1547.6 2167.99 1526.65ZM2204.41 1558.85 2222.23 1579.8 2216.99 1584.25 2199.17 1563.31ZM2235.59 1595.51 2253.41 1616.45 2248.18 1620.91 2230.36 1599.96ZM2266.78 1632.16 2284.6 1653.11 2279.36 1657.56 2261.54 1636.62ZM2297.96 1668.82 2315.78 1689.76 2310.55 1694.22 2292.73 1673.27ZM2329.15 1705.47 2346.97 1726.42 2341.73 1730.87 2323.91 1709.93ZM2360.33 1742.12 2378.15 1763.07 2372.92 1767.52 2355.1 1746.58ZM2391.52 1778.78 2401.11 1790.06 2395.88 1794.51 2386.28 1783.23ZM2406 1779.89 2413.35 1809.74 2385.05 1797.71Z"/><path d="M0 0 89.8395 205.333" stroke="#000000" stroke-width="6.875" stroke-linejoin="round" stroke-miterlimit="10" stroke-dasharray="27.5 20.625" fill="none" fill-rule="evenodd" transform="matrix(1 0 0 -1 1893.5 1509.83)"/><path d="M1911.77 801.423 1892.65 835.261 1913.65 835.261 1912.73 817.966C1912.63 815.603 1912.54 812.649 1912.47 809.104 1912.39 805.559 1912.36 802.999 1912.36 801.423ZM1912.09 790.09 1920.2 790.09 1924.07 849.978C1924.25 852.807 1924.57 855.018 1925.03 856.611 1925.5 858.205 1926.13 859.386 1926.94 860.156 1927.75 860.926 1928.92 861.418 1930.46 861.633L1929.87 864.265 1907.52 864.265 1908.11 861.633C1910.23 861.454 1911.8 860.63 1912.84 859.162 1913.88 857.694 1914.4 855.116 1914.4 851.428 1914.4 850.031 1914.35 848.51 1914.24 846.863L1913.86 839.934 1890.23 839.934 1887.27 845.198C1885.88 847.668 1884.86 849.79 1884.21 851.562 1883.57 853.335 1883.25 854.901 1883.25 856.262 1883.25 859.27 1885.05 861.06 1888.67 861.633L1888.08 864.265 1866.11 864.265 1866.7 861.633C1867.81 861.49 1868.86 861.051 1869.85 860.317 1870.83 859.583 1871.88 858.473 1872.99 856.987 1874.1 855.501 1875.66 853.039 1877.66 849.602Z" fill-rule="evenodd"/><text fill="#000000" fill-opacity="0" font-family="Arial,Arial_MSFontService,sans-serif" font-size="74.1748" x="1866.11" y="854.993">𝐴</text><path d="M1297.05 1812.21 1290.39 1842.98C1292.58 1843.13 1295.26 1843.2 1298.45 1843.2 1303.89 1843.2 1307.98 1842.58 1310.72 1841.35 1313.46 1840.11 1315.82 1837.92 1317.78 1834.77 1319.75 1831.61 1320.74 1827.73 1320.74 1823.11 1320.74 1819.49 1319.55 1816.77 1317.17 1814.95 1314.79 1813.12 1311.23 1812.21 1306.51 1812.21ZM1312.95 1779.34C1309.84 1779.34 1306.94 1779.39 1304.25 1779.5L1298.18 1807.48 1305.75 1807.48C1309.98 1807.48 1313.34 1807.14 1315.82 1806.46 1318.31 1805.78 1320.51 1804.56 1322.4 1802.81 1324.3 1801.05 1325.68 1799.13 1326.54 1797.03 1327.4 1794.94 1327.83 1792.51 1327.83 1789.76 1327.83 1788.22 1327.56 1786.77 1327.02 1785.43 1326.49 1784.09 1325.56 1782.94 1324.26 1781.99 1322.95 1781.05 1321.45 1780.37 1319.75 1779.95 1318.04 1779.54 1315.78 1779.34 1312.95 1779.34ZM1288.83 1774.61 1315.42 1774.61C1320.79 1774.61 1325.1 1775.17 1328.34 1776.3 1331.58 1777.43 1333.96 1779.09 1335.48 1781.27 1337 1783.45 1337.77 1786.19 1337.77 1789.49 1337.77 1794.18 1336.33 1798.27 1333.47 1801.76 1330.6 1805.25 1326.34 1807.93 1320.69 1809.79L1320.58 1810.38C1323.91 1811.71 1326.47 1813.59 1328.26 1816.05 1330.05 1818.5 1330.94 1821.28 1330.94 1824.4 1330.94 1829.16 1329.85 1833.23 1327.67 1836.62 1325.48 1840 1322.21 1842.73 1317.84 1844.81 1313.47 1846.89 1307.08 1847.92 1298.66 1847.92L1274.76 1847.92 1275.35 1845.29C1276.71 1845.08 1277.73 1844.73 1278.41 1844.25 1279.1 1843.76 1279.67 1843.09 1280.13 1842.23 1280.6 1841.37 1281.03 1840.32 1281.42 1839.09 1281.82 1837.85 1282.41 1835.46 1283.2 1831.92L1292.33 1790.56C1293.11 1786.98 1293.51 1784.15 1293.51 1782.08 1293.51 1780.32 1293.1 1779.1 1292.27 1778.42 1291.45 1777.74 1290.11 1777.35 1288.24 1777.24Z" fill-rule="evenodd"/><text fill="#000000" fill-opacity="0" font-family="Arial,Arial_MSFontService,sans-serif" font-size="73.3154" x="1274.76" y="1838.76">𝐵</text><path d="M2512.55 1773.75C2515.81 1773.75 2518.83 1773.95 2521.6 1774.34 2524.38 1774.73 2527.47 1775.45 2530.87 1776.49L2527.64 1791.04 2522.49 1791.04C2522.2 1786.64 2521.24 1783.46 2519.61 1781.51 2517.99 1779.56 2515.36 1778.58 2511.75 1778.58 2506.8 1778.58 2502.21 1781.05 2497.97 1786 2493.73 1790.94 2490.37 1797.46 2487.9 1805.57 2485.43 1813.68 2484.19 1821.21 2484.19 1828.16 2484.19 1833.6 2485.16 1837.61 2487.09 1840.19 2489.03 1842.77 2492 1844.06 2496.01 1844.06 2498.69 1844.06 2501.04 1843.65 2503.04 1842.85 2505.05 1842.04 2506.93 1840.68 2508.68 1838.77 2510.44 1836.85 2512.18 1834.17 2513.89 1830.74L2519.05 1830.74 2515.77 1845.99C2509.08 1847.85 2502.06 1848.78 2494.72 1848.78 2487.99 1848.78 2482.87 1846.85 2479.36 1842.98 2475.85 1839.12 2474.09 1833.46 2474.09 1826.01 2474.09 1820.75 2475.03 1814.68 2476.91 1807.8 2478.79 1800.93 2481.45 1794.89 2484.89 1789.7 2488.33 1784.51 2492.39 1780.55 2497.08 1777.83 2501.77 1775.11 2506.93 1773.75 2512.55 1773.75Z" fill-rule="evenodd"/><text fill="#000000" fill-opacity="0" font-family="Arial,Arial_MSFontService,sans-serif" font-size="75.0342" x="2474.09" y="1839.4">𝐶</text><path d="M1877.6 1558.01 1894.74 1558.01 1908.92 1599.85C1910.96 1605.86 1912.53 1610.95 1913.64 1615.1L1914.23 1615.1C1914.52 1612.92 1915.17 1609.28 1916.2 1604.2 1917.22 1599.11 1918.16 1594.67 1919.02 1590.88L1922.77 1573.96C1923.56 1570.41 1923.96 1567.53 1923.96 1565.31 1923.96 1563.63 1923.54 1562.46 1922.69 1561.79 1921.85 1561.13 1920.52 1560.75 1918.69 1560.64L1919.28 1558.01 1938.08 1558.01 1937.49 1560.64C1936.13 1560.93 1935.16 1561.25 1934.56 1561.61 1933.97 1561.96 1933.45 1562.5 1932.98 1563.22 1932.51 1563.93 1932.03 1565.05 1931.53 1566.57 1931.03 1568.1 1930.4 1570.58 1929.65 1574.01L1917.03 1631.32 1909.72 1631.32 1894.04 1585.24C1892.14 1579.72 1890.48 1574.23 1889.04 1568.75L1888.35 1568.75C1888.13 1570.58 1887.54 1574.06 1886.57 1579.2 1885.61 1584.33 1884.59 1589.36 1883.51 1594.26L1878.79 1615.69C1878.03 1619.09 1877.66 1621.89 1877.66 1624.07 1877.66 1625.68 1878.06 1626.82 1878.87 1627.48 1879.67 1628.15 1881.02 1628.55 1882.92 1628.69L1882.33 1631.32 1863.53 1631.32 1864.12 1628.69C1865.48 1628.48 1866.5 1628.13 1867.18 1627.64 1867.86 1627.16 1868.44 1626.49 1868.9 1625.63 1869.37 1624.77 1869.8 1623.72 1870.19 1622.49 1870.59 1621.25 1871.18 1618.86 1871.96 1615.32L1881.1 1573.96C1881.45 1572.42 1881.74 1570.95 1881.95 1569.56 1882.17 1568.16 1882.28 1566.74 1882.28 1565.31 1882.28 1563.63 1881.86 1562.46 1881.01 1561.79 1880.17 1561.13 1878.84 1560.75 1877.01 1560.64Z" fill-rule="evenodd"/><text fill="#000000" fill-opacity="0" font-family="Arial,Arial_MSFontService,sans-serif" font-size="73.3154" x="1863.53" y="1622.16">𝑁</text><path d="M1966.64 1362.84 1983.77 1362.84 1997.95 1404.68C1999.99 1410.69 2001.57 1415.78 2002.68 1419.93L2003.27 1419.93C2003.55 1417.75 2004.21 1414.11 2005.23 1409.03 2006.25 1403.94 2007.19 1399.5 2008.05 1395.71L2011.81 1378.79C2012.6 1375.24 2012.99 1372.36 2012.99 1370.14 2012.99 1368.46 2012.57 1367.29 2011.73 1366.62 2010.89 1365.96 2009.55 1365.58 2007.73 1365.47L2008.32 1362.84 2027.12 1362.84 2026.53 1365.47C2025.16 1365.75 2024.19 1366.08 2023.6 1366.43 2023.01 1366.79 2022.48 1367.33 2022.01 1368.05 2021.55 1368.76 2021.06 1369.88 2020.56 1371.4 2020.06 1372.92 2019.44 1375.4 2018.68 1378.84L2006.06 1436.15 1998.76 1436.15 1983.07 1390.07C1981.18 1384.55 1979.51 1379.06 1978.08 1373.58L1977.38 1373.58C1977.16 1375.4 1976.57 1378.89 1975.61 1384.03 1974.64 1389.16 1973.62 1394.19 1972.55 1399.09L1967.82 1420.52C1967.07 1423.92 1966.69 1426.72 1966.69 1428.9 1966.69 1430.51 1967.09 1431.65 1967.9 1432.31 1968.71 1432.97 1970.06 1433.38 1971.95 1433.52L1971.36 1436.15 1952.57 1436.15 1953.16 1433.52C1954.52 1433.3 1955.54 1432.96 1956.22 1432.47 1956.9 1431.99 1957.47 1431.32 1957.94 1430.46 1958.4 1429.6 1958.83 1428.55 1959.23 1427.32 1959.62 1426.08 1960.21 1423.69 1961 1420.15L1970.13 1378.79C1970.49 1377.25 1970.77 1375.78 1970.99 1374.38 1971.2 1372.99 1971.31 1371.57 1971.31 1370.14 1971.31 1368.46 1970.89 1367.29 1970.05 1366.62 1969.21 1365.96 1967.87 1365.58 1966.05 1365.47Z" fill-rule="evenodd"/><text fill="#000000" fill-opacity="0" font-family="Arial,Arial_MSFontService,sans-serif" font-size="73.3154" x="1952.57" y="1426.99">𝑁</text><path d="M2049.72 1354.46 2059.79 1354.46 2059.79 1357.5 2046.79 1388.79 2042.22 1387.43Z" fill-rule="evenodd"/><text fill="#000000" fill-opacity="0" font-family="Arial,Arial_MSFontService,sans-serif" font-size="34.3359" x="2042.22" y="1384.5">′</text><path d="M2076.58 1055.39 2092.88 1055.39 2092.43 1057.37C2091.4 1057.59 2090.67 1057.83 2090.22 1058.1 2089.78 1058.37 2089.37 1058.78 2089.01 1059.32 2088.64 1059.86 2088.28 1060.7 2087.91 1061.85 2087.55 1063 2087.08 1064.87 2086.51 1067.46L2081.45 1090.16C2081.1 1091.7 2080.82 1093.16 2080.62 1094.55 2080.41 1095.95 2080.31 1097.39 2080.31 1098.87 2080.31 1101.82 2081.04 1104.05 2082.48 1105.56 2083.93 1107.07 2086.11 1107.83 2089.03 1107.83 2091.78 1107.83 2094.08 1107.26 2095.92 1106.13 2097.75 1104.99 2099.23 1103.36 2100.33 1101.22 2101.44 1099.09 2102.37 1096.32 2103.13 1092.91L2108.76 1067.42C2109.36 1064.72 2109.65 1062.55 2109.65 1060.9 2109.65 1059.63 2109.34 1058.74 2108.7 1058.24 2108.07 1057.74 2107.06 1057.45 2105.68 1057.37L2106.13 1055.39 2121.53 1055.39 2121.08 1057.37C2120.08 1057.59 2119.35 1057.84 2118.87 1058.12 2118.4 1058.4 2117.98 1058.82 2117.62 1059.36 2117.25 1059.9 2116.9 1060.75 2116.54 1061.91 2116.19 1063.07 2115.73 1064.92 2115.17 1067.46L2109.9 1091.74C2108.84 1096.57 2107.36 1100.42 2105.44 1103.29 2103.52 1106.15 2101.12 1108.22 2098.25 1109.49 2095.37 1110.76 2091.85 1111.39 2087.69 1111.39 2083.01 1111.39 2079.43 1110.27 2076.95 1108.01 2074.46 1105.75 2073.22 1102.46 2073.22 1098.14 2073.22 1096.63 2073.38 1094.89 2073.69 1092.93 2074 1090.97 2074.44 1088.77 2075 1086.31L2079.22 1067.42C2079.84 1064.64 2080.15 1062.46 2080.15 1060.9 2080.15 1059.68 2079.84 1058.81 2079.22 1058.28 2078.6 1057.76 2077.57 1057.45 2076.14 1057.37Z" fill-rule="evenodd"/><text fill="#000000" fill-opacity="0" font-family="Arial,Arial_MSFontService,sans-serif" font-size="56.0088" x="2073.22" y="1104.39">𝑈</text><path d="M2099.6 1038.68C2100.87 1038.68 2101.94 1039.13 2102.8 1040.04 2103.67 1040.94 2104.1 1042.08 2104.1 1043.46 2104.1 1044.84 2103.67 1045.98 2102.8 1046.89 2101.94 1047.79 2100.87 1048.24 2099.6 1048.24 2098.3 1048.24 2097.22 1047.79 2096.36 1046.89 2095.49 1045.98 2095.06 1044.84 2095.06 1043.46 2095.06 1042.08 2095.49 1040.94 2096.36 1040.04 2097.22 1039.13 2098.3 1038.68 2099.6 1038.68Z" fill="#836967" fill-rule="evenodd"/><text fill="#000000" fill-opacity="0" font-family="Arial,Arial_MSFontService,sans-serif" font-size="9.56445" x="2095.06" y="1047.05">ሶ</text><path d="M2144.83 1099.85C2143.13 1102.62 2141.45 1105.4 2139.78 1108.18 2138.11 1110.96 2136.42 1113.75 2134.72 1116.55L2146 1116.55C2145.91 1115.3 2145.81 1114.07 2145.71 1112.87 2145.61 1111.67 2145.54 1110.4 2145.48 1109.07 2145.42 1107.75 2145.36 1106.33 2145.32 1104.83 2145.27 1103.32 2145.24 1101.66 2145.24 1099.85ZM2144.71 1093.43 2149.55 1093.43 2152.21 1124.4C2152.29 1125.39 2152.42 1126.23 2152.58 1126.92 2152.75 1127.6 2152.98 1128.17 2153.27 1128.62 2153.56 1129.06 2153.93 1129.41 2154.37 1129.64 2154.81 1129.88 2155.36 1130.04 2156.02 1130.14L2155.58 1131.93 2142.81 1131.93 2143.25 1130.14C2143.8 1130.04 2144.28 1129.92 2144.7 1129.77 2145.12 1129.63 2145.47 1129.38 2145.74 1129.04 2146.01 1128.7 2146.22 1128.23 2146.37 1127.65 2146.52 1127.06 2146.59 1126.3 2146.59 1125.36 2146.59 1125.01 2146.58 1124.61 2146.56 1124.15 2146.54 1123.69 2146.52 1123.21 2146.49 1122.7 2146.46 1122.19 2146.42 1121.67 2146.37 1121.13 2146.32 1120.59 2146.28 1120.07 2146.24 1119.56L2133.11 1119.56C2132.66 1120.23 2132.22 1120.91 2131.78 1121.61 2131.34 1122.32 2130.94 1123.01 2130.58 1123.68 2130.22 1124.35 2129.93 1125.02 2129.71 1125.69 2129.5 1126.35 2129.39 1127 2129.39 1127.65 2129.39 1129.07 2130.44 1129.9 2132.53 1130.14L2132.15 1131.93 2119.34 1131.93 2119.67 1130.14C2120.19 1130.04 2120.67 1129.89 2121.09 1129.68 2121.51 1129.48 2121.95 1129.16 2122.41 1128.72 2122.86 1128.28 2123.36 1127.68 2123.9 1126.93 2124.44 1126.18 2125.09 1125.19 2125.85 1123.96Z" fill-rule="evenodd"/><text fill="#000000" fill-opacity="0" font-family="Arial,Arial_MSFontService,sans-serif" font-size="38.4961" x="2119.34" y="1127.11">𝐴</text><path d="M2168.92 1093.93 2179.03 1093.93C2179.95 1096.37 2180.89 1098.83 2181.86 1101.3 2182.82 1103.77 2183.77 1106.23 2184.71 1108.69 2185.65 1111.15 2186.55 1113.58 2187.42 1115.97 2188.29 1118.37 2189.09 1120.71 2189.81 1122.99L2190.19 1122.99C2190.41 1121.74 2190.68 1120.26 2191.01 1118.55 2191.34 1116.84 2191.73 1115.07 2192.18 1113.23 2192.51 1111.85 2192.85 1110.42 2193.19 1108.96 2193.53 1107.49 2193.85 1106.09 2194.15 1104.74 2194.44 1103.39 2194.68 1102.15 2194.86 1101 2195.05 1099.86 2195.14 1098.92 2195.14 1098.18 2195.14 1097.32 2194.92 1096.71 2194.48 1096.34 2194.04 1095.98 2193.23 1095.79 2192.04 1095.77L2192.45 1093.93 2203.32 1093.93 2202.93 1095.69C2202.27 1095.88 2201.74 1096.05 2201.35 1096.2 2200.96 1096.34 2200.63 1096.63 2200.36 1097.05 2200.08 1097.47 2199.82 1098.08 2199.58 1098.88 2199.34 1099.68 2199.05 1100.83 2198.72 1102.34L2192.09 1131.93 2187.67 1131.93C2186.64 1129.27 2185.58 1126.59 2184.49 1123.9 2183.41 1121.2 2182.34 1118.51 2181.3 1115.81 2180.25 1113.12 2179.25 1110.44 2178.3 1107.79 2177.34 1105.13 2176.47 1102.51 2175.69 1099.93L2175.31 1099.93C2175.21 1100.54 2175.09 1101.24 2174.96 1102.04 2174.82 1102.84 2174.67 1103.71 2174.5 1104.64 2174.34 1105.56 2174.16 1106.52 2173.97 1107.49 2173.79 1108.47 2173.6 1109.45 2173.4 1110.42 2173.23 1111.16 2173.02 1112.03 2172.77 1113.01 2172.53 1114 2172.28 1115.06 2172.03 1116.18 2171.77 1117.3 2171.51 1118.44 2171.25 1119.59 2170.99 1120.74 2170.75 1121.84 2170.53 1122.89 2170.32 1123.93 2170.15 1124.88 2170.02 1125.74 2169.89 1126.6 2169.83 1127.28 2169.83 1127.77 2169.83 1128.59 2170.06 1129.17 2170.53 1129.51 2171 1129.85 2171.8 1130.06 2172.93 1130.14L2172.61 1131.93 2161.68 1131.93 2162.07 1130.14C2162.65 1130.04 2163.14 1129.92 2163.53 1129.79 2163.92 1129.65 2164.26 1129.37 2164.56 1128.95 2164.85 1128.53 2165.13 1127.9 2165.39 1127.06 2165.65 1126.22 2165.95 1125.04 2166.28 1123.52L2171.09 1102.16C2171.26 1101.38 2171.4 1100.65 2171.48 1099.98 2171.57 1099.3 2171.62 1098.7 2171.62 1098.18 2171.62 1097.32 2171.39 1096.71 2170.94 1096.34 2170.49 1095.98 2169.67 1095.79 2168.48 1095.77Z" fill-rule="evenodd"/><text fill="#000000" fill-opacity="0" font-family="Arial,Arial_MSFontService,sans-serif" font-size="37.998" x="2161.68" y="1127.18">𝑁</text><path d="M2216.43 1079.8 2223.97 1079.8 2223.97 1082.12 2214.26 1105.53 2210.81 1104.53Z" fill-rule="evenodd"/><text fill="#000000" fill-opacity="0" font-family="Arial,Arial_MSFontService,sans-serif" font-size="25.7324" x="2210.81" y="1102.31">′</text><path d="M1378.52 1285.8 1394.82 1285.8 1394.37 1287.78C1393.34 1288 1392.61 1288.24 1392.16 1288.51 1391.72 1288.78 1391.31 1289.19 1390.95 1289.73 1390.58 1290.27 1390.22 1291.11 1389.85 1292.26 1389.49 1293.41 1389.02 1295.28 1388.45 1297.87L1383.39 1320.57C1383.04 1322.11 1382.76 1323.57 1382.56 1324.97 1382.35 1326.36 1382.25 1327.8 1382.25 1329.28 1382.25 1332.23 1382.98 1334.46 1384.42 1335.97 1385.87 1337.48 1388.05 1338.24 1390.97 1338.24 1393.72 1338.24 1396.02 1337.67 1397.86 1336.54 1399.69 1335.4 1401.17 1333.77 1402.27 1331.63 1403.38 1329.5 1404.31 1326.73 1405.07 1323.32L1410.7 1297.83C1411.3 1295.13 1411.59 1292.96 1411.59 1291.31 1411.59 1290.04 1411.28 1289.15 1410.64 1288.65 1410.01 1288.15 1409 1287.86 1407.62 1287.78L1408.07 1285.8 1423.47 1285.8 1423.02 1287.78C1422.02 1288 1421.29 1288.25 1420.81 1288.53 1420.34 1288.82 1419.92 1289.23 1419.56 1289.77 1419.19 1290.31 1418.84 1291.16 1418.48 1292.32 1418.13 1293.48 1417.67 1295.33 1417.11 1297.87L1411.84 1322.15C1410.78 1326.99 1409.3 1330.84 1407.38 1333.7 1405.46 1336.56 1403.06 1338.63 1400.19 1339.9 1397.31 1341.17 1393.79 1341.81 1389.63 1341.81 1384.95 1341.81 1381.38 1340.68 1378.89 1338.42 1376.4 1336.17 1375.16 1332.88 1375.16 1328.55 1375.16 1327.04 1375.32 1325.3 1375.63 1323.35 1375.94 1321.39 1376.38 1319.18 1376.94 1316.72L1381.16 1297.83C1381.78 1295.05 1382.09 1292.88 1382.09 1291.31 1382.09 1290.09 1381.78 1289.22 1381.16 1288.69 1380.54 1288.17 1379.51 1287.86 1378.08 1287.78Z" fill-rule="evenodd"/><text fill="#000000" fill-opacity="0" font-family="Arial,Arial_MSFontService,sans-serif" font-size="56.0088" x="1375.16" y="1334.8">𝑈</text><path d="M1401.54 1269.09C1402.81 1269.09 1403.88 1269.54 1404.74 1270.45 1405.61 1271.35 1406.04 1272.5 1406.04 1273.87 1406.04 1275.25 1405.61 1276.39 1404.74 1277.3 1403.88 1278.2 1402.81 1278.66 1401.54 1278.66 1400.24 1278.66 1399.16 1278.2 1398.3 1277.3 1397.43 1276.39 1397 1275.25 1397 1273.87 1397 1272.5 1397.43 1271.35 1398.3 1270.45 1399.16 1269.54 1400.24 1269.09 1401.54 1269.09Z" fill="#836967" fill-rule="evenodd"/><text fill="#000000" fill-opacity="0" font-family="Arial,Arial_MSFontService,sans-serif" font-size="9.56445" x="1397" y="1277.46">ሶ</text><path d="M1439.54 1344.2 1436.2 1359.23C1436.67 1359.25 1437.26 1359.27 1437.97 1359.29 1438.68 1359.31 1439.53 1359.32 1440.5 1359.32 1442.61 1359.32 1444.43 1359.14 1445.97 1358.78 1447.5 1358.42 1448.77 1357.85 1449.78 1357.08 1450.78 1356.31 1451.52 1355.31 1452 1354.08 1452.48 1352.85 1452.72 1351.37 1452.72 1349.65 1452.72 1348.75 1452.58 1347.96 1452.31 1347.28 1452.04 1346.6 1451.58 1346.02 1450.95 1345.56 1450.31 1345.11 1449.5 1344.76 1448.52 1344.54 1447.53 1344.31 1446.32 1344.2 1444.9 1344.2ZM1448.38 1327.39C1447.45 1327.39 1446.55 1327.4 1445.7 1327.43 1444.85 1327.46 1444.04 1327.51 1443.26 1327.59L1440.24 1341.16 1444.78 1341.16C1446.91 1341.16 1448.71 1340.96 1450.19 1340.56 1451.66 1340.15 1452.86 1339.58 1453.78 1338.84 1454.69 1338.1 1455.36 1337.21 1455.78 1336.16 1456.2 1335.12 1456.41 1333.94 1456.41 1332.63 1456.37 1331.79 1456.21 1331.04 1455.91 1330.37 1455.62 1329.71 1455.16 1329.16 1454.52 1328.72 1453.89 1328.28 1453.07 1327.95 1452.06 1327.72 1451.06 1327.5 1449.83 1327.39 1448.38 1327.39ZM1434.32 1324.34 1449.67 1324.34C1451.96 1324.34 1453.9 1324.52 1455.49 1324.9 1457.08 1325.27 1458.39 1325.8 1459.41 1326.51 1460.44 1327.21 1461.18 1328.06 1461.64 1329.04 1462.1 1330.03 1462.33 1331.16 1462.33 1332.43 1462.33 1337.23 1459.31 1340.62 1453.28 1342.59 1453.28 1342.69 1453.27 1342.77 1453.26 1342.83 1453.25 1342.88 1453.25 1342.93 1453.25 1342.97 1455.06 1343.69 1456.44 1344.69 1457.38 1345.96 1458.32 1347.23 1458.78 1348.69 1458.78 1350.35 1458.78 1352.23 1458.44 1353.9 1457.74 1355.38 1457.05 1356.85 1455.98 1358.1 1454.54 1359.13 1453.09 1360.15 1451.24 1360.95 1448.97 1361.5 1446.7 1362.06 1443.99 1362.34 1440.83 1362.34L1427.09 1362.34 1427.41 1360.55C1428.01 1360.45 1428.51 1360.34 1428.89 1360.21 1429.27 1360.09 1429.61 1359.81 1429.91 1359.39 1430.22 1358.97 1430.49 1358.34 1430.75 1357.5 1431 1356.66 1431.29 1355.47 1431.63 1353.93L1436.43 1332.57C1436.63 1331.71 1436.77 1330.95 1436.87 1330.29 1436.97 1329.62 1437.02 1329.08 1437.02 1328.65 1437.02 1327.77 1436.8 1327.14 1436.36 1326.77 1435.92 1326.4 1435.09 1326.2 1433.88 1326.18Z" fill-rule="evenodd"/><text fill="#000000" fill-opacity="0" font-family="Arial,Arial_MSFontService,sans-serif" font-size="37.998" x="1427.09" y="1357.59">𝐵</text><path d="M1476.54 1324.34 1486.65 1324.34C1487.57 1326.78 1488.51 1329.24 1489.48 1331.71 1490.45 1334.18 1491.4 1336.64 1492.34 1339.1 1493.27 1341.57 1494.18 1343.99 1495.05 1346.39 1495.91 1348.78 1496.71 1351.12 1497.43 1353.4L1497.81 1353.4C1498.03 1352.15 1498.3 1350.67 1498.63 1348.96 1498.97 1347.25 1499.36 1345.48 1499.81 1343.65 1500.14 1342.26 1500.48 1340.83 1500.82 1339.37 1501.16 1337.9 1501.48 1336.5 1501.77 1335.15 1502.06 1333.8 1502.3 1332.56 1502.49 1331.41 1502.67 1330.27 1502.77 1329.33 1502.77 1328.59 1502.77 1327.73 1502.55 1327.12 1502.11 1326.76 1501.67 1326.39 1500.85 1326.2 1499.66 1326.18L1500.07 1324.34 1510.94 1324.34 1510.56 1326.1C1509.89 1326.29 1509.37 1326.46 1508.98 1326.61 1508.59 1326.76 1508.25 1327.04 1507.98 1327.46 1507.71 1327.88 1507.45 1328.49 1507.2 1329.29 1506.96 1330.09 1506.67 1331.24 1506.34 1332.75L1499.72 1362.34 1495.29 1362.34C1494.26 1359.68 1493.2 1357.01 1492.12 1354.31 1491.03 1351.61 1489.97 1348.92 1488.92 1346.22 1487.88 1343.53 1486.88 1340.85 1485.92 1338.2 1484.96 1335.54 1484.09 1332.92 1483.31 1330.35L1482.93 1330.35C1482.83 1330.95 1482.72 1331.65 1482.58 1332.45 1482.44 1333.26 1482.29 1334.12 1482.13 1335.05 1481.96 1335.97 1481.78 1336.93 1481.6 1337.9 1481.41 1338.88 1481.22 1339.86 1481.03 1340.83 1480.85 1341.58 1480.64 1342.44 1480.4 1343.43 1480.15 1344.41 1479.9 1345.47 1479.65 1346.59 1479.4 1347.71 1479.14 1348.85 1478.87 1350 1478.61 1351.16 1478.37 1352.25 1478.16 1353.3 1477.94 1354.34 1477.77 1355.3 1477.64 1356.16 1477.52 1357.02 1477.45 1357.69 1477.45 1358.18 1477.45 1359 1477.69 1359.58 1478.16 1359.92 1478.62 1360.26 1479.43 1360.47 1480.56 1360.55L1480.24 1362.34 1469.31 1362.34 1469.69 1360.55C1470.28 1360.45 1470.76 1360.34 1471.15 1360.2 1471.54 1360.06 1471.89 1359.78 1472.18 1359.36 1472.47 1358.94 1472.75 1358.31 1473.01 1357.47 1473.28 1356.63 1473.58 1355.45 1473.91 1353.93L1478.71 1332.57C1478.89 1331.79 1479.02 1331.06 1479.11 1330.39 1479.2 1329.72 1479.24 1329.11 1479.24 1328.59 1479.24 1327.73 1479.02 1327.12 1478.57 1326.76 1478.12 1326.39 1477.3 1326.2 1476.11 1326.18Z" fill-rule="evenodd"/><text fill="#000000" fill-opacity="0" font-family="Arial,Arial_MSFontService,sans-serif" font-size="37.998" x="1469.31" y="1357.59">𝑁</text><path d="M1524.05 1310.21 1531.6 1310.21 1531.6 1312.53 1521.88 1335.94 1518.44 1334.94Z" fill-rule="evenodd"/><text fill="#000000" fill-opacity="0" font-family="Arial,Arial_MSFontService,sans-serif" font-size="25.7324" x="1518.44" y="1332.72">′</text><path d="M2322.46 1397.69 2338.76 1397.69 2338.31 1399.68C2337.28 1399.89 2336.55 1400.14 2336.1 1400.41 2335.66 1400.68 2335.25 1401.08 2334.89 1401.62 2334.52 1402.16 2334.16 1403.01 2333.79 1404.16 2333.43 1405.3 2332.96 1407.17 2332.39 1409.77L2327.33 1432.46C2326.98 1434 2326.7 1435.47 2326.5 1436.86 2326.29 1438.25 2326.19 1439.69 2326.19 1441.18 2326.19 1444.12 2326.91 1446.35 2328.36 1447.86 2329.81 1449.38 2331.99 1450.13 2334.91 1450.13 2337.66 1450.13 2339.96 1449.57 2341.79 1448.43 2343.63 1447.3 2345.1 1445.66 2346.21 1443.53 2347.32 1441.39 2348.25 1438.62 2349.01 1435.22L2354.64 1409.73C2355.24 1407.03 2355.53 1404.85 2355.53 1403.2 2355.53 1401.93 2355.22 1401.05 2354.58 1400.55 2353.95 1400.05 2352.94 1399.76 2351.56 1399.68L2352.01 1397.69 2367.41 1397.69 2366.96 1399.68C2365.96 1399.89 2365.23 1400.14 2364.75 1400.43 2364.28 1400.71 2363.86 1401.12 2363.5 1401.66 2363.13 1402.2 2362.77 1403.05 2362.42 1404.22 2362.07 1405.38 2361.61 1407.23 2361.05 1409.77L2355.78 1434.04C2354.72 1438.88 2353.24 1442.73 2351.32 1445.59 2349.4 1448.46 2347 1450.53 2344.13 1451.8 2341.25 1453.07 2337.73 1453.7 2333.57 1453.7 2328.89 1453.7 2325.31 1452.57 2322.83 1450.32 2320.34 1448.06 2319.1 1444.77 2319.1 1440.45 2319.1 1438.93 2319.25 1437.2 2319.57 1435.24 2319.88 1433.28 2320.32 1431.07 2320.88 1428.61L2325.1 1409.73C2325.72 1406.95 2326.03 1404.77 2326.03 1403.2 2326.03 1401.99 2325.72 1401.12 2325.1 1400.59 2324.48 1400.06 2323.45 1399.76 2322.02 1399.68Z" fill-rule="evenodd"/><text fill="#000000" fill-opacity="0" font-family="Arial,Arial_MSFontService,sans-serif" font-size="56.0088" x="2319.1" y="1446.7">𝑈</text><path d="M2345.48 1380.99C2346.75 1380.99 2347.82 1381.44 2348.68 1382.34 2349.55 1383.25 2349.98 1384.39 2349.98 1385.77 2349.98 1387.15 2349.55 1388.29 2348.68 1389.19 2347.82 1390.1 2346.75 1390.55 2345.48 1390.55 2344.18 1390.55 2343.1 1390.1 2342.24 1389.19 2341.37 1388.29 2340.94 1387.15 2340.94 1385.77 2340.94 1384.39 2341.37 1383.25 2342.24 1382.34 2343.1 1381.44 2344.18 1380.99 2345.48 1380.99Z" fill="#836967" fill-rule="evenodd"/><text fill="#000000" fill-opacity="0" font-family="Arial,Arial_MSFontService,sans-serif" font-size="9.56445" x="2340.94" y="1389.35">ሶ</text><path d="M2394.14 1435.68C2395.02 1435.68 2395.87 1435.7 2396.69 1435.75 2397.51 1435.8 2398.35 1435.89 2399.21 1436.01 2400.07 1436.14 2400.94 1436.31 2401.83 1436.53 2402.72 1436.74 2403.67 1437.02 2404.69 1437.35L2402.93 1445.2 2399.85 1445.2C2399.75 1444.07 2399.58 1443.09 2399.33 1442.27 2399.07 1441.45 2398.71 1440.78 2398.24 1440.25 2397.77 1439.72 2397.17 1439.33 2396.44 1439.09 2395.71 1438.85 2394.81 1438.72 2393.76 1438.72 2392.33 1438.72 2390.98 1439.08 2389.69 1439.78 2388.4 1440.48 2387.22 1441.44 2386.14 1442.65 2385.07 1443.86 2384.11 1445.28 2383.26 1446.91 2382.41 1448.54 2381.68 1450.27 2381.07 1452.1 2380.47 1453.92 2380.01 1455.8 2379.7 1457.74 2379.38 1459.67 2379.23 1461.56 2379.23 1463.39 2379.23 1466.34 2379.78 1468.48 2380.88 1469.81 2381.99 1471.14 2383.68 1471.8 2385.97 1471.8 2387.12 1471.8 2388.17 1471.67 2389.12 1471.42 2390.06 1471.17 2390.94 1470.77 2391.75 1470.22 2392.56 1469.67 2393.3 1468.96 2393.98 1468.09 2394.65 1467.23 2395.28 1466.19 2395.87 1464.97L2399.09 1464.97 2397.22 1473.15C2396.16 1473.46 2395.15 1473.72 2394.17 1473.94 2393.19 1474.15 2392.24 1474.33 2391.3 1474.47 2390.36 1474.6 2389.43 1474.71 2388.51 1474.77 2387.6 1474.84 2386.67 1474.88 2385.73 1474.88 2383.7 1474.88 2381.9 1474.58 2380.33 1474 2378.75 1473.41 2377.44 1472.58 2376.39 1471.49 2375.33 1470.41 2374.53 1469.08 2373.98 1467.51 2373.44 1465.94 2373.16 1464.17 2373.16 1462.22 2373.16 1459.66 2373.42 1457.23 2373.94 1454.91 2374.46 1452.6 2375.18 1450.46 2376.11 1448.49 2377.04 1446.53 2378.15 1444.76 2379.45 1443.18 2380.75 1441.6 2382.17 1440.25 2383.72 1439.13 2385.28 1438.02 2386.93 1437.17 2388.69 1436.57 2390.45 1435.98 2392.26 1435.68 2394.14 1435.68Z" fill-rule="evenodd"/><text fill="#000000" fill-opacity="0" font-family="Arial,Arial_MSFontService,sans-serif" font-size="39.1992" x="2373.16" y="1469.98">𝐶</text><path d="M2417.5 1436.23 2427.61 1436.23C2428.53 1438.68 2429.47 1441.13 2430.44 1443.6 2431.41 1446.07 2432.36 1448.54 2433.3 1451 2434.23 1453.46 2435.14 1455.89 2436.01 1458.28 2436.87 1460.67 2437.67 1463.01 2438.39 1465.3L2438.77 1465.3C2438.99 1464.05 2439.26 1462.57 2439.59 1460.86 2439.93 1459.15 2440.32 1457.38 2440.77 1455.54 2441.1 1454.15 2441.43 1452.73 2441.78 1451.26 2442.12 1449.8 2442.44 1448.39 2442.73 1447.04 2443.02 1445.7 2443.26 1444.45 2443.45 1443.31 2443.63 1442.17 2443.72 1441.22 2443.72 1440.48 2443.72 1439.62 2443.51 1439.01 2443.07 1438.65 2442.63 1438.29 2441.81 1438.1 2440.62 1438.08L2441.03 1436.23 2451.9 1436.23 2451.52 1437.99C2450.85 1438.19 2450.33 1438.36 2449.94 1438.5 2449.55 1438.65 2449.21 1438.93 2448.94 1439.35 2448.67 1439.77 2448.41 1440.38 2448.16 1441.19 2447.92 1441.99 2447.63 1443.14 2447.3 1444.64L2440.68 1474.23 2436.25 1474.23C2435.22 1471.58 2434.16 1468.9 2433.08 1466.2 2431.99 1463.51 2430.93 1460.81 2429.88 1458.12 2428.84 1455.42 2427.84 1452.75 2426.88 1450.09 2425.92 1447.44 2425.05 1444.82 2424.27 1442.24L2423.89 1442.24C2423.79 1442.85 2423.68 1443.55 2423.54 1444.35 2423.4 1445.15 2423.25 1446.01 2423.09 1446.94 2422.92 1447.87 2422.74 1448.82 2422.56 1449.8 2422.37 1450.78 2422.18 1451.75 2421.99 1452.73 2421.81 1453.47 2421.6 1454.33 2421.36 1455.32 2421.11 1456.31 2420.86 1457.36 2420.61 1458.49 2420.36 1459.61 2420.1 1460.75 2419.83 1461.9 2419.57 1463.05 2419.33 1464.15 2419.12 1465.19 2418.9 1466.24 2418.73 1467.19 2418.6 1468.05 2418.48 1468.91 2418.41 1469.58 2418.41 1470.07 2418.41 1470.89 2418.65 1471.47 2419.12 1471.82 2419.58 1472.16 2420.39 1472.37 2421.52 1472.45L2421.2 1474.23 2410.27 1474.23 2410.65 1472.45C2411.23 1472.35 2411.72 1472.23 2412.11 1472.09 2412.5 1471.96 2412.85 1471.68 2413.14 1471.26 2413.43 1470.84 2413.71 1470.21 2413.97 1469.37 2414.24 1468.53 2414.54 1467.35 2414.87 1465.82L2419.67 1444.47C2419.85 1443.69 2419.98 1442.96 2420.07 1442.28 2420.16 1441.61 2420.2 1441.01 2420.2 1440.48 2420.2 1439.62 2419.97 1439.01 2419.53 1438.65 2419.08 1438.29 2418.26 1438.1 2417.06 1438.08Z" fill-rule="evenodd"/><text fill="#000000" fill-opacity="0" font-family="Arial,Arial_MSFontService,sans-serif" font-size="37.998" x="2410.27" y="1469.48">𝑁</text><path d="M2465.01 1422.1 2472.56 1422.1 2472.56 1424.42 2462.84 1447.84 2459.4 1446.84Z" fill-rule="evenodd"/><text fill="#000000" fill-opacity="0" font-family="Arial,Arial_MSFontService,sans-serif" font-size="25.7324" x="2459.4" y="1444.62">′</text><path d="M0.024371-1.14557 15.7113-0.81185 31.2983 0.162348 46.6389 1.73379 61.6114 3.85995 76.0942 6.49844 89.9659 9.60706 103.105 13.1439 115.391 17.0675 126.703 21.3369 136.922 25.9126 146.001 30.7957 154.742 38.5705 153.219 40.2828 144.579 32.5973 144.798 32.7503 135.873 27.9505 135.948 27.9872 125.798 23.4426 125.862 23.4688 114.61 19.222 114.666 19.2415 102.433 15.335 102.484 15.3499 89.3937 11.8263 89.441 11.8379 75.6156 8.73968 75.6608 8.74886 61.2227 6.11853 61.267 6.1257 46.3388 4.00584 46.3831 4.01126 31.0874 2.4444 31.1327 2.44813 15.5919 1.47682 15.639 1.4788-0.024371 1.14557ZM162.51 27.7083 167.293 58.0799 140.126 43.6838Z" fill="#4472C4" transform="matrix(1 0 0 -1 1983 1209.08)"/><path d="M1704.49 1510.04 1681.09 1509.3 1657.84 1507.16 1634.96 1503.7 1612.63 1499.02 1591.04 1493.21 1570.35 1486.36 1550.76 1478.58 1532.46 1469.95 1523.83 1465.34 1515.6 1460.55 1507.77 1455.6 1500.38 1450.5 1493.45 1445.24 1486.99 1439.86 1481.03 1434.35 1475.6 1428.73 1470.71 1423.01 1466.39 1417.2 1462.63 1411.24 1459.78 1403.55 1461.93 1402.76 1464.74 1410.33 1464.63 1410.12 1468.3 1415.94 1468.26 1415.86 1472.52 1421.61 1472.48 1421.55 1477.31 1427.22 1477.27 1427.16 1482.65 1432.74 1482.61 1432.69 1488.52 1438.16 1488.48 1438.12 1494.89 1443.47 1494.85 1443.43 1501.75 1448.65 1501.71 1448.62 1509.06 1453.7 1509.02 1453.68 1516.81 1458.61 1516.77 1458.58 1524.97 1463.35 1524.93 1463.33 1533.52 1467.91 1533.46 1467.89 1551.71 1476.49 1551.64 1476.46 1571.17 1484.22 1571.11 1484.2 1591.73 1491.02 1591.66 1491 1613.2 1496.79 1613.14 1496.78 1635.4 1501.45 1635.34 1501.44 1658.15 1504.89 1658.09 1504.88 1681.27 1507.02 1681.2 1507.01 1704.56 1507.75ZM1448.73 1411.1 1455 1381 1475.32 1404.07Z" fill="#4472C4"/><path d="M0.024371-1.14557 15.7113-0.81185 31.2983 0.162348 46.6389 1.73379 61.6114 3.85995 76.0942 6.49844 89.9659 9.60706 103.105 13.1439 115.391 17.0675 126.703 21.3369 136.922 25.9126 146.001 30.7957 154.742 38.5705 153.219 40.2828 144.579 32.5973 144.798 32.7503 135.873 27.9505 135.948 27.9872 125.798 23.4426 125.862 23.4688 114.61 19.222 114.666 19.2415 102.433 15.335 102.484 15.3499 89.3937 11.8263 89.441 11.8379 75.6156 8.73968 75.6608 8.74886 61.2227 6.11853 61.267 6.1257 46.3388 4.00584 46.3831 4.01126 31.0874 2.4444 31.1327 2.44813 15.5919 1.47682 15.639 1.4788-0.024371 1.14557ZM162.51 27.7083 167.293 58.0799 140.126 43.6838Z" fill="#4472C4" transform="matrix(1 0 0 -1 2230 1557.08)"/></g></svg>